<svg width="415" height="120" viewBox="0 0 415 120" fill="none" xmlns="http://www.w3.org/2000/svg">
<path d="M0.34375 0.574219C16.7958 18.3475 41.3528 66.9445 7.96489 119.146C31.1913 99.881 62.184 49.196 0.34375 0.574219Z" fill="white"/>
<path d="M69.7903 17.0425C57.3095 36.1722 40.4605 81.7277 72.9105 110.912C51.2177 99.4932 20.2238 64.7334 69.7903 17.0425Z" fill="white"/>
<path d="M119.477 78.1398C114.805 78.1398 110.269 77.5634 105.871 76.4106C101.473 75.2579 97.8999 73.7208 95.1511 71.7995L100.511 59.7777C103.095 61.4794 106.091 62.8518 109.5 63.8947C112.908 64.9377 116.261 65.4592 119.56 65.4592C125.827 65.4592 128.961 63.8947 128.961 60.7658C128.961 59.1189 128.054 57.9113 126.239 57.1428C124.48 56.3193 121.622 55.4685 117.663 54.5902C113.32 53.657 109.692 52.6689 106.778 51.6259C103.865 50.528 101.363 48.7988 99.2742 46.4384C97.1852 44.0779 96.1407 40.8941 96.1407 36.8868C96.1407 33.3735 97.1027 30.2171 99.0268 27.4175C100.951 24.563 103.81 22.3123 107.603 20.6655C111.451 19.0187 116.152 18.1953 121.704 18.1953C125.497 18.1953 129.236 18.6344 132.919 19.5127C136.602 20.3361 139.846 21.5713 142.649 23.2181L137.619 35.3223C132.122 32.358 126.789 30.8758 121.621 30.8758C118.378 30.8758 116.014 31.3699 114.53 32.358C113.045 33.2912 112.303 34.5263 112.303 36.0634C112.303 37.6004 113.183 38.7532 114.942 39.5217C116.701 40.2902 119.532 41.0862 123.436 41.9096C127.834 42.8428 131.462 43.8583 134.321 44.9562C137.234 45.9992 139.736 47.7009 141.825 50.0614C143.969 52.367 145.041 55.5234 145.041 59.5307C145.041 62.989 144.079 66.118 142.155 68.9176C140.23 71.7172 137.344 73.9678 133.496 75.6696C129.648 77.3164 124.975 78.1398 119.477 78.1398Z" fill="white"/>
<path d="M198.927 64.3888V76.987H152.583V19.3481H197.855V31.9463H168.745V41.6626H194.391V53.8491H168.745V64.3888H198.927Z" fill="white"/>
<path d="M246.662 65.7886H222.253L217.718 76.987H201.06L226.541 19.3481H242.621L268.185 76.987H251.197L246.662 65.7886ZM241.879 53.7668L234.458 35.3223L227.036 53.7668H241.879Z" fill="white"/>
<path d="M293.099 78.1398C288.426 78.1398 283.891 77.5634 279.493 76.4106C275.095 75.2579 271.522 73.7208 268.773 71.7995L274.133 59.7777C276.717 61.4794 279.713 62.8518 283.121 63.8947C286.53 64.9377 289.883 65.4592 293.182 65.4592C299.449 65.4592 302.582 63.8947 302.582 60.7658C302.582 59.1189 301.675 57.9113 299.861 57.1428C298.102 56.3193 295.243 55.4685 291.285 54.5902C286.942 53.657 283.314 52.6689 280.4 51.6259C277.486 50.528 274.985 48.7988 272.896 46.4384C270.807 44.0779 269.762 40.8941 269.762 36.8868C269.762 33.3735 270.724 30.2171 272.649 27.4175C274.573 24.563 277.431 22.3123 281.225 20.6655C285.073 19.0187 289.773 18.1953 295.326 18.1953C299.119 18.1953 302.857 18.6344 306.541 19.5127C310.224 20.3361 313.467 21.5713 316.271 23.2181L311.241 35.3223C305.743 32.358 300.411 30.8758 295.243 30.8758C292 30.8758 289.636 31.3699 288.151 32.358C286.667 33.2912 285.925 34.5263 285.925 36.0634C285.925 37.6004 286.805 38.7532 288.564 39.5217C290.323 40.2902 293.154 41.0862 297.057 41.9096C301.455 42.8428 305.084 43.8583 307.942 44.9562C310.856 45.9992 313.357 47.7009 315.446 50.0614C317.59 52.367 318.663 55.5234 318.663 59.5307C318.663 62.989 317.7 66.118 315.776 68.9176C313.852 71.7172 310.966 73.9678 307.118 75.6696C303.27 77.3164 298.597 78.1398 293.099 78.1398Z" fill="white"/>
<path d="M326.205 19.3481H342.532V76.987H326.205V19.3481Z" fill="white"/>
<path d="M392.823 65.7886H368.414L363.879 76.987H347.222L372.702 19.3481H388.783L414.346 76.987H397.359L392.823 65.7886ZM388.04 53.7668L380.619 35.3223L373.197 53.7668H388.04Z" fill="white"/>
<path d="M108.237 106.593H98.7668L96.7271 111.158H94.8574L102.628 94.0714H104.4L112.17 111.158H110.276L108.237 106.593ZM107.581 105.129L103.502 95.9509L99.4224 105.129H107.581Z" fill="white"/>
<path d="M128.719 111.451C126.986 111.451 125.416 111.076 124.008 110.328C122.616 109.563 121.515 108.513 120.706 107.179C119.912 105.828 119.516 104.307 119.516 102.615C119.516 100.922 119.912 99.4089 120.706 98.0745C121.515 96.7239 122.616 95.6743 124.008 94.9258C125.416 94.1609 126.995 93.7785 128.743 93.7785C130.216 93.7785 131.543 94.0389 132.725 94.5596C133.923 95.0803 134.927 95.8289 135.736 96.8052L133.211 99.1485C132.061 97.8141 130.637 97.147 128.937 97.147C127.885 97.147 126.946 97.3829 126.12 97.8548C125.295 98.3105 124.647 98.9532 124.178 99.7831C123.725 100.613 123.498 101.557 123.498 102.615C123.498 103.672 123.725 104.616 124.178 105.446C124.647 106.276 125.295 106.927 126.12 107.399C126.946 107.854 127.885 108.082 128.937 108.082C130.637 108.082 132.061 107.407 133.211 106.056L135.736 108.399C134.927 109.392 133.923 110.149 132.725 110.67C131.527 111.19 130.192 111.451 128.719 111.451Z" fill="white"/>
<path d="M153.86 111.158L153.835 100.906L148.833 109.351H147.061L142.083 101.126V111.158H138.392V94.0714H141.646L148.008 104.689L154.272 94.0714H157.502L157.551 111.158H153.86Z" fill="white"/>
<path d="M177.051 111.158L177.026 100.906L172.024 109.351H170.252L165.274 101.126V111.158H161.583V94.0714H164.837L171.199 104.689L177.463 94.0714H180.693L180.741 111.158H177.051Z" fill="white"/>
<path d="M184.774 94.0714H188.708V111.158H184.774V94.0714Z" fill="white"/>
<path d="M199.096 94.0714H203.03V107.936H211.553V111.158H199.096V94.0714Z" fill="white"/>
<path d="M226.185 104.641C226.185 104.689 226.161 105.031 226.112 105.666H216.23C216.408 106.479 216.829 107.122 217.492 107.594C218.156 108.066 218.982 108.302 219.969 108.302C220.649 108.302 221.248 108.204 221.766 108.009C222.3 107.797 222.794 107.472 223.247 107.033L225.262 109.229C224.032 110.645 222.235 111.353 219.872 111.353C218.399 111.353 217.096 111.068 215.963 110.499C214.829 109.913 213.955 109.107 213.34 108.082C212.725 107.057 212.417 105.893 212.417 104.592C212.417 103.306 212.717 102.151 213.316 101.126C213.931 100.084 214.765 99.2787 215.817 98.7091C216.885 98.1233 218.075 97.8304 219.386 97.8304C220.665 97.8304 221.823 98.107 222.859 98.6603C223.895 99.2136 224.704 100.011 225.287 101.052C225.886 102.078 226.185 103.274 226.185 104.641ZM219.411 100.711C218.553 100.711 217.832 100.955 217.25 101.443C216.667 101.931 216.311 102.598 216.181 103.444H222.616C222.486 102.615 222.13 101.956 221.547 101.467C220.965 100.963 220.252 100.711 219.411 100.711Z" fill="white"/>
<path d="M241.436 98.0257L235.924 111.158H232.015L226.527 98.0257H230.437L234.055 106.959L237.794 98.0257H241.436Z" fill="white"/>
<path d="M255.423 104.641C255.423 104.689 255.398 105.031 255.35 105.666H245.467C245.645 106.479 246.066 107.122 246.73 107.594C247.394 108.066 248.219 108.302 249.207 108.302C249.887 108.302 250.485 108.204 251.003 108.009C251.538 107.797 252.031 107.472 252.485 107.033L254.5 109.229C253.27 110.645 251.473 111.353 249.109 111.353C247.636 111.353 246.333 111.068 245.2 110.499C244.067 109.913 243.193 109.107 242.578 108.082C241.963 107.057 241.655 105.893 241.655 104.592C241.655 103.306 241.955 102.151 242.553 101.126C243.169 100.084 244.002 99.2787 245.054 98.7091C246.123 98.1233 247.313 97.8304 248.624 97.8304C249.903 97.8304 251.06 98.107 252.096 98.6603C253.132 99.2136 253.942 100.011 254.524 101.052C255.123 102.078 255.423 103.274 255.423 104.641ZM248.648 100.711C247.79 100.711 247.07 100.955 246.487 101.443C245.904 101.931 245.548 102.598 245.419 103.444H251.853C251.724 102.615 251.368 101.956 250.785 101.467C250.202 100.963 249.49 100.711 248.648 100.711Z" fill="white"/>
<path d="M257.945 93.0463H261.733V111.158H257.945V93.0463Z" fill="white"/>
<path d="M277.151 100.491C279.547 100.491 281.311 100.971 282.444 101.931C283.594 102.891 284.168 104.177 284.168 105.788C284.168 106.829 283.909 107.781 283.391 108.644C282.873 109.49 282.08 110.173 281.012 110.694C279.96 111.198 278.656 111.451 277.102 111.451C275.905 111.451 274.723 111.296 273.557 110.987C272.408 110.661 271.429 110.206 270.619 109.62L272.173 106.593C272.821 107.081 273.565 107.464 274.407 107.74C275.249 108.001 276.115 108.131 277.005 108.131C277.993 108.131 278.77 107.936 279.336 107.545C279.903 107.155 280.186 106.61 280.186 105.91C280.186 105.178 279.887 104.624 279.288 104.25C278.705 103.876 277.685 103.689 276.228 103.689H271.882L272.756 94.0714H283.124V97.2446H276.034L275.767 100.491H277.151Z" fill="white"/>
<path d="M301.322 111.304C299.639 111.304 298.117 110.93 296.757 110.181C295.413 109.433 294.353 108.399 293.576 107.081C292.815 105.747 292.435 104.258 292.435 102.615C292.435 100.971 292.815 99.4902 293.576 98.1721C294.353 96.8378 295.422 95.7963 296.781 95.0478C298.141 94.2993 299.663 93.925 301.346 93.925C302.609 93.925 303.774 94.1365 304.843 94.5596C305.911 94.9827 306.818 95.6011 307.562 96.4147L306.421 97.5619C305.094 96.2113 303.418 95.536 301.395 95.536C300.051 95.536 298.829 95.8452 297.728 96.4635C296.628 97.0819 295.762 97.928 295.13 99.002C294.515 100.076 294.208 101.28 294.208 102.615C294.208 103.949 294.515 105.153 295.13 106.227C295.762 107.301 296.628 108.147 297.728 108.766C298.829 109.384 300.051 109.693 301.395 109.693C303.435 109.693 305.11 109.01 306.421 107.643L307.562 108.79C306.818 109.604 305.903 110.23 304.819 110.67C303.75 111.093 302.585 111.304 301.322 111.304Z" fill="white"/>
<path d="M315.68 111.28C314.45 111.28 313.341 111.003 312.353 110.45C311.366 109.88 310.589 109.099 310.022 108.107C309.456 107.114 309.173 105.991 309.173 104.738C309.173 103.485 309.456 102.362 310.022 101.37C310.589 100.377 311.366 99.6041 312.353 99.0509C313.341 98.4976 314.45 98.221 315.68 98.221C316.91 98.221 318.019 98.4976 319.007 99.0509C319.994 99.6041 320.763 100.377 321.313 101.37C321.88 102.362 322.163 103.485 322.163 104.738C322.163 105.991 321.88 107.114 321.313 108.107C320.763 109.099 319.994 109.88 319.007 110.45C318.019 111.003 316.91 111.28 315.68 111.28ZM315.68 109.742C316.587 109.742 317.396 109.539 318.108 109.132C318.837 108.709 319.403 108.115 319.808 107.35C320.213 106.585 320.415 105.715 320.415 104.738C320.415 103.762 320.213 102.891 319.808 102.126C319.403 101.362 318.837 100.776 318.108 100.369C317.396 99.9459 316.587 99.7343 315.68 99.7343C314.774 99.7343 313.956 99.9459 313.228 100.369C312.515 100.776 311.949 101.362 311.528 102.126C311.123 102.891 310.921 103.762 310.921 104.738C310.921 105.715 311.123 106.585 311.528 107.35C311.949 108.115 312.515 108.709 313.228 109.132C313.956 109.539 314.774 109.742 315.68 109.742Z" fill="white"/>
<path d="M341.612 98.221C343.214 98.221 344.469 98.6847 345.375 99.6123C346.298 100.54 346.759 101.907 346.759 103.713V111.158H345.035V103.884C345.035 102.549 344.712 101.532 344.064 100.833C343.433 100.133 342.534 99.7831 341.369 99.7831C340.042 99.7831 338.997 100.198 338.237 101.028C337.476 101.842 337.095 102.973 337.095 104.421V111.158H335.371V103.884C335.371 102.549 335.048 101.532 334.4 100.833C333.769 100.133 332.862 99.7831 331.681 99.7831C330.369 99.7831 329.325 100.198 328.548 101.028C327.787 101.842 327.407 102.973 327.407 104.421V111.158H325.683V98.3186H327.334V100.662C327.787 99.8808 328.419 99.2787 329.228 98.8556C330.037 98.4325 330.968 98.221 332.02 98.221C333.089 98.221 334.012 98.4488 334.789 98.9044C335.582 99.36 336.173 100.035 336.561 100.93C337.031 100.084 337.702 99.4251 338.577 98.9532C339.467 98.4651 340.479 98.221 341.612 98.221Z" fill="white"/>
<path d="M358.015 98.221C359.213 98.221 360.298 98.4976 361.269 99.0509C362.24 99.5879 363.001 100.353 363.551 101.345C364.102 102.338 364.377 103.469 364.377 104.738C364.377 106.024 364.102 107.163 363.551 108.155C363.001 109.148 362.24 109.921 361.269 110.474C360.314 111.011 359.229 111.28 358.015 111.28C356.979 111.28 356.04 111.068 355.198 110.645C354.373 110.206 353.693 109.571 353.159 108.741V115.893H351.435V98.3186H353.086V100.857C353.604 100.011 354.284 99.36 355.126 98.9044C355.984 98.4488 356.947 98.221 358.015 98.221ZM357.894 109.742C358.784 109.742 359.593 109.539 360.322 109.132C361.05 108.709 361.617 108.115 362.022 107.35C362.442 106.585 362.653 105.715 362.653 104.738C362.653 103.762 362.442 102.899 362.022 102.151C361.617 101.386 361.05 100.792 360.322 100.369C359.593 99.9459 358.784 99.7343 357.894 99.7343C356.987 99.7343 356.17 99.9459 355.441 100.369C354.729 100.792 354.162 101.386 353.742 102.151C353.337 102.899 353.134 103.762 353.134 104.738C353.134 105.715 353.337 106.585 353.742 107.35C354.162 108.115 354.729 108.709 355.441 109.132C356.17 109.539 356.987 109.742 357.894 109.742Z" fill="white"/>
<path d="M372.288 98.221C373.955 98.221 375.234 98.6441 376.124 99.4902C377.015 100.32 377.46 101.557 377.46 103.2V111.158H375.809V109.156C375.42 109.823 374.846 110.344 374.085 110.718C373.34 111.093 372.45 111.28 371.414 111.28C369.989 111.28 368.856 110.938 368.014 110.255C367.173 109.571 366.752 108.668 366.752 107.545C366.752 106.455 367.14 105.576 367.917 104.909C368.71 104.242 369.965 103.908 371.681 103.908H375.736V103.127C375.736 102.021 375.428 101.183 374.813 100.613C374.198 100.027 373.3 99.7343 372.118 99.7343C371.309 99.7343 370.532 99.8726 369.787 100.149C369.042 100.41 368.403 100.776 367.869 101.248L367.092 99.954C367.739 99.4007 368.516 98.9776 369.423 98.6847C370.329 98.3756 371.284 98.221 372.288 98.221ZM371.681 109.913C372.652 109.913 373.486 109.693 374.182 109.254C374.878 108.798 375.396 108.147 375.736 107.301V105.202H371.729C369.544 105.202 368.451 105.967 368.451 107.496C368.451 108.245 368.735 108.839 369.301 109.278C369.868 109.701 370.661 109.913 371.681 109.913Z" fill="white"/>
<path d="M388.65 98.221C390.253 98.221 391.523 98.6929 392.462 99.6367C393.417 100.564 393.895 101.923 393.895 103.713V111.158H392.171V103.884C392.171 102.549 391.839 101.532 391.175 100.833C390.512 100.133 389.565 99.7831 388.334 99.7831C386.958 99.7831 385.866 100.198 385.056 101.028C384.263 101.842 383.866 102.973 383.866 104.421V111.158H382.143V98.3186H383.794V100.686C384.263 99.9052 384.911 99.3031 385.736 98.88C386.578 98.4406 387.549 98.221 388.65 98.221Z" fill="white"/>
<path d="M409.071 98.3186L402.685 112.695C402.167 113.9 401.568 114.754 400.888 115.258C400.208 115.763 399.39 116.015 398.435 116.015C397.82 116.015 397.245 115.917 396.711 115.722C396.177 115.527 395.716 115.234 395.327 114.843L396.129 113.55C396.776 114.201 397.553 114.526 398.46 114.526C399.042 114.526 399.536 114.363 399.941 114.038C400.362 113.713 400.75 113.159 401.106 112.378L401.665 111.133L395.959 98.3186H397.755L402.563 109.229L407.371 98.3186H409.071Z" fill="white"/>
</svg>
